<svg xmlns="http://www.w3.org/2000/svg" viewBox="0 0 238.88 188.22"><defs><style>.cls-1{fill:#007541;}.cls-2{fill:#1e8c45;}.cls-3{fill:#3aa346;}.cls-4{fill:#58bb44;}.cls-5{fill:#78d23d;}.cls-6{fill:#9be931;}.cls-7{fill:#fff;}.cls-8{fill:#c1ff1c;}</style></defs><title>Colored</title><g id="Слой_2" data-name="Слой 2"><g id="Слой_3" data-name="Слой 3"><path class="cls-1" d="M164.58,18.78s-.17-8.58-6.39-10c-8-1.86-7.65,6.52-12.88,6.52s.34-8.1-5.21-10c-4.21-1.47-6.82,3.32-11,2.17-6.77-1.85-5.34-7.4-9-7.4s-2.25,5.55-9,7.4c-4.18,1.15-6.79-3.64-11-2.17-5.55,1.95,0,10-5.21,10S90,6.9,82,8.76c-6.22,1.44-6.29,10-6.29,10l2.38,9.11L94.34,44.17l25.79,21.57,24.51-19.53,19.94-19.94Z"/><path class="cls-2" d="M120.08,62.45a33.5,33.5,0,0,0-5.85-4.88C89.35,41.47,102.9,30.52,93.64,25s-13.39,7.15-17.35-4.66c-1.93-5.77-8-12.82-17.43-9.29-4.31,1.62-9.11,7.15-9.11,13.17,0,6.46,3.44,14.85-10.5,10.1-4.34-1.48-7.82,3-9.94,7.17l12.38,16.7L68,68.21l27.41,25,13.86,2.9,10.77-33.68"/><path class="cls-3" d="M210.58,41.09,205.53,55.4,188,58.21,154.21,79.28l-15.28,33.64L118.6,120l-9.29-32.51s.36-19.32,16.73-29.92c24.88-16.1,11.33-27,20.59-32.59S160,32.13,164,20.32c1.94-5.77,8-12.82,17.44-9.29,4.31,1.62,9.11,7.15,9.11,13.17,0,6.46-3.45,14.85,10.5,10.1C205.36,32.82,208.45,36.93,210.58,41.09Z"/><path class="cls-4" d="M121.77,114.49l12.14,25,67.55-11.74s37.42,12.8,37.42-40.6c0-4.75-.13-14.46-6.42-14.85-14.7-.91-8.32-7.36-5.86-13.33,2.29-5.57,0-12.51-3.42-15.65-7.36-6.85-14.72-1.61-19.66,2-4.59,3.32-10.05-2.78-17.81-2.3-21.81,1.36-11.45,21.45-45.16,34.47-14.77,5.71-10.47,26.94-18.78,37"/><path class="cls-5" d="M138.93,124.9l-7.14-3a26.56,26.56,0,0,1-15.2-17.29c-4.49-15.76-11.16-24.4-18.26-27.14C64.63,64.47,75,44.38,53.17,43c-7.76-.48-13.21,5.62-17.81,2.3-4.94-3.57-12.3-8.81-19.66-2C12.33,46.5,10,53.44,12.29,59c2.45,6,8.84,12.42-5.86,13.33C.14,72.73,0,82.44,0,87.19c0,53.4,37.43,40.6,37.43,40.6L51,126.43l68,11.63Z"/><path class="cls-6" d="M192.8,91,176,88.69l-13.66,13.66-18.59,24.42L120.6,133h-1.44L109.32,131l-20-8.86L69.47,91.35l-23.22-.5a84.09,84.09,0,0,0-8.82,36.94c0,45.31,37,60.43,82.33,60.43s81.75-15.12,81.75-60.43A81.1,81.1,0,0,0,192.8,91ZM71.23,153.82c-9.35,0-16.94-9.3-16.94-20.77s7.59-20.77,16.94-20.77a13.09,13.09,0,0,1,4.06.6l11.15,11.4a22.75,22.75,0,0,1,1.73,8.77C88.17,144.52,80.58,153.82,71.23,153.82Z"/><path class="cls-7" d="M164.18,112.6a12.15,12.15,0,0,1,4-.43c9.35,0,16.94,9.3,16.94,20.77s-7.59,20.76-16.94,20.76-16.94-9.3-16.94-20.76c0-3.14,0-5.59,1-8.26"/><circle class="cls-1" cx="162.34" cy="134.43" r="5.81"/><path class="cls-7" d="M88.17,133.05c0,11.47-7.59,20.77-16.94,20.77s-16.94-9.3-16.94-20.77,7.59-20.77,16.94-20.77a13.09,13.09,0,0,1,4.06.6l11.15,11.4A22.75,22.75,0,0,1,88.17,133.05Z"/><circle class="cls-1" cx="77.04" cy="134.53" r="5.81"/><path class="cls-8" d="M119.75,133c-19.36-.2-29.77-5-35.47-10.67-10.07-9.91-12.49-14.56-24.69-25.16C54.7,93,50.37,92.89,47,91.27c-2.05-1-3.73-2.59-4.93-6.09C40.54,80.62,43.67,74.84,47.35,73c7.6-3.77,17.4,1.36,19.13,2.36,16.4,9.52,12.45,27.25,27.2,43.86,4.41,5,12.34,10.34,26.07,13.81"/><path class="cls-8" d="M119.47,133c19.36-.2,29.77-5,35.47-10.67,10.07-9.91,12.5-14.56,24.69-25.16,4.9-4.25,9.23-4.32,12.57-5.94l.6-.32c1.77-1,3.24-2.62,4.32-5.77,1.56-4.56-1.57-10.34-5.25-12.17-7.6-3.77-17.4,1.36-19.13,2.36-16.4,9.52-12.44,27.25-27.2,43.86-4.41,5-12.34,10.34-26.07,13.81"/><path class="cls-1" d="M119.47,171c13.34,0,37,1.79,40.23.64,2.89-1,5.06-2.7,4-7.62-3.52-15.69-39-17-44.19-17s-40.67,1.33-44.19,17c-1.11,4.92,1.07,6.58,4,7.62C82.43,172.81,106.13,171,119.47,171Z"/><path class="cls-7" d="M109.3,168.16a1.73,1.73,0,0,0,1.56-2.33c-1.19-3.15-4.44-6.42-8.74-6.25-4,.15-6.42,3.24-7.4,6.19a2.21,2.21,0,0,0,2.2,2.87Z"/><path class="cls-7" d="M142.53,168.57a1.74,1.74,0,0,0,1.72-2.23c-1-3.21-4-6.69-8.31-6.8-4-.11-6.63,2.8-7.79,5.69a2.2,2.2,0,0,0,2,3Z"/><path class="cls-7" d="M123.86,168.06a1.2,1.2,0,0,0,1.15-1.57,6.5,6.5,0,0,0-5.9-4.57,5.81,5.81,0,0,0-5.3,4.1,1.53,1.53,0,0,0,1.45,2Z"/></g></g></svg>